<svg id="_1C_Solid" data-name=" 1C Solid" xmlns="http://www.w3.org/2000/svg" viewBox="0 0 982.74 194.96"><defs><style>.cls-1{fill:#ed711c;}.cls-2{fill:none;}</style></defs><path class="cls-1" d="M903.41,91.33A9.81,9.81,0,0,1,923,90.7q0,.31,0,.63a9.68,9.68,0,0,1-9.43,9.93h-.37a9.59,9.59,0,0,1-9.81-9.36,5.42,5.42,0,0,1,0-.57m17.72,0c0-4.68-3.24-8.29-7.91-8.29a7.93,7.93,0,0,0-8,8.29c0,4.68,3.24,8.29,8,8.29s7.92-3.66,7.92-8.29M910,85.79h2.84a5.72,5.72,0,0,1,1.88.28,2.7,2.7,0,0,1,1.93,2.63,2.84,2.84,0,0,1-2.54,2.83h0c.73.53,1.76,2.34,3.16,4.89h-2c-1.43-2.67-2.33-4.27-2.91-4.48h-.7v4.48H910Zm2.46,4.84c1.28,0,2.34-.45,2.34-1.81a1.4,1.4,0,0,0-.9-1.43,3.72,3.72,0,0,0-1.48-.21h-.74v3.45Z"/><path class="cls-1" d="M282.14,134.57V60.4h12.7V86.9c3.91-3.29,9.15-6.78,15.41-6.78,10.68,0,15.82,7,15.82,17.88v36.57H313.34V99.85c0-7.19-2.27-9.46-6.58-9.46A16.26,16.26,0,0,0,294.84,96v38.53Z"/><path class="cls-1" d="M376,81.19v53.38H364.28v-5.75c-4.72,3.28-10.14,6.77-16.44,6.77-10.68,0-15.81-7-15.81-17.87V81.19h12.74v34.68c0,7.19,2.25,9.46,6.58,9.46a16.24,16.24,0,0,0,11.91-5.66V81.19Z"/><path class="cls-1" d="M382.07,134.57V81.19h11.59v5.75c4.84-4.41,8.75-6.78,16-6.78,5.54,0,10.78,2.68,13.14,7.81,4.42-4.42,9.56-7.81,18.4-7.81,5.54,0,13.15,3.29,13.15,16v38.41h-12.7V97.28c0-4.32-1.74-6.68-6.37-6.89-3.29,0-7.71,3-10.69,5.76v38.42H411.85V97.28c0-4.32-1.75-6.68-6.36-6.89-3.29,0-7.71,3-10.69,5.76v38.42Z"/><path class="cls-1" d="M490.24,134.57l-.82-4.62c-5.14,3.49-10,5.64-16.65,5.64-9.65,0-14.48-6.87-14.48-14.17,0-12.12,9.87-18.49,30.61-21V95.94c0-4.11-3.28-6.37-7.8-6.37-6,0-9.25,3.19-11.72,6.58l-8.24-6.27c3.28-5.65,12.12-10,19.93-9.76,14.37.31,20.55,5.55,20.55,21.58v25.16a23.94,23.94,0,0,0,1,7.71ZM488.9,109c-8.53,1.64-17.87,3.39-17.87,10.89,0,4,2.56,6.26,6.16,6.26,4,0,9.05-3.39,11.71-5.65Z"/><path class="cls-1" d="M508.21,134.57V81.19h11.72v5.75c4.72-3.29,10.17-6.78,16.43-6.78,10.7,0,15.83,7,15.83,17.88v36.53H539.45V99.85c0-7.19-2.26-9.46-6.57-9.46A16.26,16.26,0,0,0,521,96v38.53Z"/><path class="cls-1" d="M558.24,134.57V60.4H571v41.4h.42l15.74-20.61h14.59L586,101.08l16.85,33.49H589.28l-11.82-23.94-6.48,7.5v16.44Z"/><path class="cls-1" d="M605.82,71.29V59.37h12.74V71.29Zm12.74,63.28H605.82V81.19h12.74Z"/><path class="cls-1" d="M624.61,134.57V81.19h11.72v5.75c4.72-3.29,10.16-6.78,16.44-6.78,10.67,0,15.82,7,15.82,17.88v36.53H655.85V99.85c0-7.19-2.26-9.46-6.57-9.46A16.31,16.31,0,0,0,637.35,96v38.53Z"/><path class="cls-1" d="M720.58,134.57h-10.8l-.64-5.75c-4.52,4.41-8.73,6.77-14.49,6.77-14.17,0-21.37-12.53-21.37-29.17,0-13.15,7.6-26.3,21.37-26.3,4.32,0,10.38,2.57,13,6h.21V60.4H720.6ZM707.84,94.92c-2.57-2.36-5.75-4.53-9.87-4.53-7.59,0-11.92,6.17-11.92,17.47s4.33,17.47,11.92,17.47c5.45,0,7.19-2.68,9.87-4.73Z"/><path class="cls-1" d="M726.63,134.57V81.19h11.72v5.75c4.72-3.29,10.17-6.78,16.43-6.78,10.68,0,15.83,7,15.83,17.88v36.53H757.87V99.85c0-7.19-2.27-9.46-6.57-9.46A16.31,16.31,0,0,0,739.37,96v38.53Z"/><path class="cls-1" d="M787.86,109.91c.21,11.1,5.14,15.42,11.11,15.42s8.72-2.68,11.91-6.38l9.26,5.76c-4.93,7.6-12.12,10.88-22.39,10.88-13.89,0-22.61-10.78-22.61-27.73s8.74-27.74,23.23-27.74c14-.1,21.77,11.71,21.77,24.56v5.23Zm20.55-8.62c-.21-7.4-4.12-11.72-10.27-11.72s-10.07,4.32-10.28,11.72Z"/><path class="cls-1" d="M852,95.19c-2.57-2.77-6-5.65-10-5.65-4.93,0-7.19,2.06-7.19,5.24,0,9.14,26.71,5.24,26.71,24.76,0,11.1-8.41,16-19.61,16a23.53,23.53,0,0,1-20.24-10.78l8.53-6.37c3,4.11,7,7.7,12.42,7.7,4.53,0,7.61-2.46,7.61-6.06,0-9.14-26.72-5.85-26.72-24.44,0-10,8.43-15.52,17.68-15.52,7.08,0,14.16,2.68,18.79,8.12Z"/><path class="cls-1" d="M892.45,95.19c-2.57-2.77-6-5.65-10-5.65-4.93,0-7.19,2.06-7.19,5.24,0,9.14,26.71,5.24,26.71,24.76,0,11.1-8.42,16-19.62,16a23.56,23.56,0,0,1-20.21-10.73l8.53-6.37c3,4.11,7,7.7,12.44,7.7,4.51,0,7.6-2.46,7.6-6.06,0-9.14-26.71-5.85-26.71-24.44,0-10,8.43-15.52,17.66-15.52,7.11,0,14.19,2.68,18.81,8.12Z"/><path class="cls-1" d="M59.37,134.57V60.41H73.55V90h28.59V60.41h14.17v74.16H102.14V102.72H73.55v31.85Z"/><path class="cls-1" d="M133.63,109.91c.21,11.1,5.13,15.41,11.09,15.41s8.74-2.67,11.92-6.37l9.24,5.75c-4.92,7.6-12.12,10.89-22.38,10.89-13.88,0-22.61-10.79-22.61-27.73s8.73-27.74,23.25-27.74c14-.09,21.78,11.72,21.78,24.55v5.24Zm20.51-8.62c-.21-7.4-4.11-11.72-10.29-11.72s-10,4.32-10.22,11.72Z"/><path class="cls-1" d="M170.5,134.57V60.41h12.74v74.16Z"/><path class="cls-1" d="M189.29,134.57V60.41H202v74.16Z"/><path class="cls-1" d="M230,80.12c14.48,0,23.22,10.79,23.22,27.74s-8.74,27.73-23.22,27.73-23.21-10.79-23.21-27.73S215.49,80.12,230,80.12Zm0,10.28c-7.08,0-10.47,5.54-10.47,17.46s3.39,17.46,10.47,17.46,10.48-5.55,10.48-17.46S237.06,90.4,230,90.4Z"/><rect class="cls-2" width="982.74" height="194.96"/></svg>